<?xml version="1.0" encoding="UTF-8" standalone="no"?>
<!-- Created with Inkscape (http://www.inkscape.org/) -->

<svg
   xmlns:dc="http://purl.org/dc/elements/1.1/"
   xmlns:cc="http://creativecommons.org/ns#"
   xmlns:rdf="http://www.w3.org/1999/02/22-rdf-syntax-ns#"
   xmlns:svg="http://www.w3.org/2000/svg"
   xmlns="http://www.w3.org/2000/svg"
   xmlns:sodipodi="http://sodipodi.sourceforge.net/DTD/sodipodi-0.dtd"
   xmlns:inkscape="http://www.inkscape.org/namespaces/inkscape"
   width="744.09448819"
   height="1052.3622047"
   id="svg4712"
   version="1.1"
   inkscape:version="0.48.4 r9939"
   sodipodi:docname="drawing.svg">
  <defs
     id="defs4714" />
  <sodipodi:namedview
     id="base"
     pagecolor="#ffffff"
     bordercolor="#666666"
     borderopacity="1.0"
     inkscape:pageopacity="0.0"
     inkscape:pageshadow="2"
     inkscape:zoom="0.7"
     inkscape:cx="-53.031849"
     inkscape:cy="688.44207"
     inkscape:document-units="px"
     inkscape:current-layer="text3771"
     showgrid="false"
     inkscape:window-width="1600"
     inkscape:window-height="850"
     inkscape:window-x="0"
     inkscape:window-y="0"
     inkscape:window-maximized="1" />
  <metadata
     id="metadata4717">
    <rdf:RDF>
      <cc:Work
         rdf:about="">
        <dc:format>image/svg+xml</dc:format>
        <dc:type
           rdf:resource="http://purl.org/dc/dcmitype/StillImage" />
        <dc:title />
      </cc:Work>
    </rdf:RDF>
  </metadata>
  <g
     inkscape:label="Layer 1"
     inkscape:groupmode="layer"
     id="layer1">
    <g
       id="g3982"
       transform="translate(-984.28572,-274.28571)">
      <path
         id="rect2985"
         d="m 433.61418,273.21414 159.33324,0 c 3.02094,0 5.45296,2.43202 5.45296,5.45296 l 0,188.43005 c 0,3.02094 -2.43202,5.45296 -5.45296,5.45296 l -159.33324,0 c -3.02093,0 -5.45295,-2.43202 -5.45295,-5.45296 l 0,-188.43005 c 0,-3.02094 2.43202,-5.45296 5.45295,-5.45296 z"
         style="fill:#5995ff;fill-opacity:1;stroke:none"
         inkscape:connector-curvature="0" />
      <g
         transform="translate(1388.0567,140.71213)"
         id="text3771"
         style="font-size:20.083992px;font-style:normal;font-weight:normal;line-height:125%;letter-spacing:0px;word-spacing:0px;fill:#ffffff;fill-opacity:1;stroke:none;font-family:Sans">
        <path
           inkscape:connector-curvature="0"
           id="path3809"
           style="font-size:128.53755188px;font-variant:normal;font-stretch:normal;fill:#ffffff;font-family:Courier 10 Pitch;-inkscape-font-specification:Courier 10 Pitch"
           d="m -906.55911,276.46576 0,-47.571 0,-4.74273 c 0,-1.72463 -1.15684,-2.87438 -3.59905,-2.87438 l -34.5766,0 c -3.34197,0 -5.01296,1.5809 -5.01296,4.88645 0,3.59296 1.79953,5.03016 5.91272,5.03016 0.64269,0 1.79953,0 3.21344,0 l 24.55068,0 0,50.44538 c 0,14.51561 -3.98468,21.1267 -17.0955,21.1267 -3.34197,0 -6.81249,-1.00603 -10.54008,-1.00603 -2.95636,0 -5.39857,2.58695 -5.39857,5.46131 0,4.59901 4.49882,6.61108 13.75351,6.61108 14.26766,0 23.77945,-5.89249 26.99289,-15.09049 1.67099,-4.74273 1.79952,-11.9287 1.79952,-22.27645 m -16.96695,-75.4525 c 0,5.74876 1.15684,6.89852 6.42688,6.89852 6.04125,0 6.42687,-1.58092 6.42687,-8.91058 0,-7.32967 -0.51415,-9.48546 -6.29834,-9.48546 -5.78418,0 -6.55541,2.15579 -6.55541,11.49752" />
        <path
           inkscape:connector-curvature="0"
           id="path3811"
           style="font-size:128.53755188px;font-variant:normal;font-stretch:normal;fill:#ffffff;font-family:Courier 10 Pitch;-inkscape-font-specification:Courier 10 Pitch"
           d="m -895.87983,277.70017 c 0,3.98466 1.67099,6.04127 4.62735,6.04127 1.41391,0 3.47052,-1.02831 6.42688,-2.95637 7.06956,1.79953 13.36791,2.82783 19.02356,2.82783 15.68156,0 24.55067,-7.8408 24.55067,-18.63795 0,-12.33959 -8.61204,-17.22403 -25.19336,-17.60964 -12.3396,-0.25708 -19.53771,-0.89977 -19.53771,-7.58372 0,-5.01296 4.7559,-9.2547 13.11083,-9.2547 6.55541,0 11.18277,1.54245 15.93866,5.78419 3.72758,3.34197 5.01296,6.55541 7.84079,6.55541 3.08489,0 4.24174,-2.18514 4.24174,-6.29834 l 0,-7.32664 c 0,-4.24173 -1.41392,-6.29834 -4.24174,-6.29834 -3.34198,0 -4.62736,2.44222 -6.42688,2.44222 -1.79952,0 -6.8125,-2.82783 -15.93866,-2.82783 -15.55303,0 -24.16506,7.19811 -24.16506,17.60965 0,11.18275 9.12619,17.35256 26.22166,17.35256 1.79953,0 2.95637,0 3.59906,0 9.51176,0 14.13913,1.79954 14.13913,8.22641 0,5.65564 -5.65567,9.76885 -14.78182,9.76885 -8.48347,0 -15.68159,-3.0849 -19.02356,-7.45518 -2.44221,-3.21343 -2.05661,-6.68395 -5.91273,-6.68395 -3.34197,0 -4.49881,1.79953 -4.49881,5.1415 l 0,11.18277" />
      </g>
      <text
         sodipodi:linespacing="125%"
         id="text3771-0"
         y="450.62595"
         x="490.86038"
         style="font-size:29.26183701px;font-style:normal;font-weight:normal;line-height:125%;letter-spacing:0px;word-spacing:0px;fill:#ffffff;fill-opacity:1;stroke:none;font-family:Sans"
         xml:space="preserve"><tspan
           style="font-size:46.62313843px;font-style:normal;font-variant:normal;font-weight:normal;font-stretch:normal;fill:#ffffff;fill-opacity:1;font-family:Courier 10 Pitch;-inkscape-font-specification:Courier 10 Pitch"
           y="450.62595"
           x="490.86038"
           id="tspan3773-6"
           sodipodi:role="line">make</tspan></text>
    </g>
    <g
       id="g3990"
       transform="translate(-507.14286,-314.28571)">
      <path
         id="rect2985-1"
         d="m 165.80045,312.76256 159.33324,0 c 3.02094,0 5.45296,2.43202 5.45296,5.45296 l 0,188.43005 c 0,3.02094 -2.43202,5.45296 -5.45296,5.45296 l -159.33324,0 c -3.02093,0 -5.45295,-2.43202 -5.45295,-5.45296 l 0,-188.43005 c 0,-3.02094 2.43202,-5.45296 5.45295,-5.45296 z"
         style="fill:#5995ff;fill-opacity:1;stroke:none"
         inkscape:connector-curvature="0" />
      <path
         inkscape:connector-curvature="0"
         d="m 184.08946,396.70487 2.78757,-53.24707 m -9.70294,59.57067 c -0.13832,-3.32795 2.44739,-6.13792 5.77536,-6.27622 3.32796,-0.13831 6.13792,2.44739 6.27622,5.77535 0.13831,3.32796 -2.44739,6.13792 -5.77536,6.27623 -3.32795,0.13831 -6.13792,-2.4474 -6.27622,-5.77536 z m 50.81809,-22.44609 -36.62426,-38.75157 m 36.43142,48.12031 c -2.50464,-2.19573 -2.75504,-6.00613 -0.55933,-8.51076 2.19573,-2.50463 6.00613,-2.75503 8.51076,-0.55931 2.50463,2.19573 2.75504,6.00612 0.55931,8.51075 -2.19572,2.50462 -6.00611,2.75505 -8.51074,0.55932 z m -35.99995,-49.12411 c -1.98224,2.67677 -5.75913,3.2398 -8.4359,1.25754 -2.67676,-1.98224 -3.23979,-5.75913 -1.25753,-8.43588 1.98223,-2.67678 5.75911,-3.2398 8.43588,-1.25755 2.67677,1.98224 3.23979,5.75912 1.25755,8.43589 z m 24.73093,82.41069 -26.42534,-78.26899 m 20.08222,91.32821 c -2.10164,-4.71316 0.0154,-10.23765 4.72859,-12.33929 4.71317,-2.10164 10.23765,0.0154 12.33928,4.72859 2.10164,4.71317 -0.0154,10.23765 -4.72859,12.33928 -4.71315,2.10164 -10.23765,-0.0154 -12.33928,-4.72858 z m 60.34612,-61.37309 -74.89157,-34.86525 m 79.96964,48.46641 c -4.86187,-1.73002 -7.40073,-7.07382 -5.67071,-11.93569 1.73003,-4.86187 7.07383,-7.40072 11.93569,-5.6707 4.86187,1.73003 7.40073,7.07382 5.6707,11.93569 -1.73002,4.86186 -7.07381,7.40073 -11.93568,5.6707 z m -79.92217,-50.15854 c -1.32421,4.98771 -6.44104,7.95756 -11.42874,6.63335 -4.98771,-1.32421 -7.95756,-6.44103 -6.63335,-11.42874 1.32421,-4.98771 6.44103,-7.95756 11.42874,-6.63335 4.9877,1.32421 7.95756,6.44103 6.63335,11.42874 z"
         style="fill:#ffffff;fill-opacity:1;stroke:#ffffff;stroke-width:3;stroke-linecap:round;stroke-linejoin:miter;stroke-miterlimit:4;stroke-opacity:1;stroke-dasharray:none"
         id="path3062-4-0-6" />
      <text
         sodipodi:linespacing="125%"
         id="text3771-0-0"
         y="488.4071"
         x="220.91608"
         style="font-size:29.26183701px;font-style:normal;font-weight:normal;line-height:125%;letter-spacing:0px;word-spacing:0px;fill:#ffffff;fill-opacity:1;stroke:none;font-family:Sans"
         xml:space="preserve"><tspan
           style="font-size:46.62313843px;font-style:normal;font-variant:normal;font-weight:normal;font-stretch:normal;fill:#ffffff;fill-opacity:1;font-family:Courier 10 Pitch;-inkscape-font-specification:Courier 10 Pitch"
           y="488.4071"
           x="220.91608"
           id="tspan3773-6-0"
           sodipodi:role="line">deps</tspan></text>
    </g>
  </g>
</svg>
